<svg width="32" height="32" viewBox="0 0 32 32" fill="none" xmlns="http://www.w3.org/2000/svg">
    <g clip-path="url(#bom8ktov9a)">
        <mask id="bu726ekpbb" style="mask-type:luminance" maskUnits="userSpaceOnUse" x="0" y="0" width="32" height="32">
            <path d="M32 0H0v32h32V0z" fill="#fff"/>
        </mask>
        <g mask="url(#bu726ekpbb)">
            <path d="m13.453 20.787 1.88 1.88L22 16l-6.667-6.667-1.88 1.88 3.44 3.454H4v2.666h12.893l-3.44 3.454zM25.333 4H6.667C5.187 4 4 5.2 4 6.667V12h2.667V6.667h18.666v18.666H6.667V20H4v5.333A2.666 2.666 0 0 0 6.667 28h18.666C26.8 28 28 26.8 28 25.333V6.667C28 5.2 26.8 4 25.333 4z" fill="#E9E9E9"/>
        </g>
    </g>
    <defs>
        <clipPath id="bom8ktov9a">
            <path fill="#fff" d="M0 0h32v32H0z"/>
        </clipPath>
    </defs>
</svg>
