<svg width="48" height="48" viewBox="0 0 48 48" fill="none" xmlns="http://www.w3.org/2000/svg">
<mask id="mask0_20_46192" style="mask-type:alpha" maskUnits="userSpaceOnUse" x="12" y="12" width="24" height="24">
<rect x="12" y="12" width="24" height="24" fill="#272936"/>
</mask>
<g mask="url(#mask0_20_46192)">
<path d="M16 35V33H32V35H16ZM16 15V13H32V15H16ZM24 25C24.8333 25 25.5417 24.7083 26.125 24.125C26.7083 23.5417 27 22.8333 27 22C27 21.1667 26.7083 20.4583 26.125 19.875C25.5417 19.2917 24.8333 19 24 19C23.1667 19 22.4583 19.2917 21.875 19.875C21.2917 20.4583 21 21.1667 21 22C21 22.8333 21.2917 23.5417 21.875 24.125C22.4583 24.7083 23.1667 25 24 25ZM16 32C15.45 32 14.9793 31.8043 14.588 31.413C14.196 31.021 14 30.55 14 30V18C14 17.45 14.196 16.9793 14.588 16.588C14.9793 16.196 15.45 16 16 16H32C32.55 16 33.021 16.196 33.413 16.588C33.8043 16.9793 34 17.45 34 18V30C34 30.55 33.8043 31.021 33.413 31.413C33.021 31.8043 32.55 32 32 32H16ZM17.75 30C18.5 29.0667 19.4083 28.3333 20.475 27.8C21.5417 27.2667 22.7167 27 24 27C25.2833 27 26.4583 27.2667 27.525 27.8C28.5917 28.3333 29.5 29.0667 30.25 30H32V18H16V30H17.75ZM20.7 30H27.3C26.8167 29.6667 26.296 29.4167 25.738 29.25C25.1793 29.0833 24.6 29 24 29C23.4 29 22.821 29.0833 22.263 29.25C21.7043 29.4167 21.1833 29.6667 20.7 30ZM24 23C23.7167 23 23.4793 22.904 23.288 22.712C23.096 22.5207 23 22.2833 23 22C23 21.7167 23.096 21.479 23.288 21.287C23.4793 21.0957 23.7167 21 24 21C24.2833 21 24.521 21.0957 24.713 21.287C24.9043 21.479 25 21.7167 25 22C25 22.2833 24.9043 22.5207 24.713 22.712C24.521 22.904 24.2833 23 24 23Z" fill="#272936"/>
</g>
</svg>
