<svg width="48" height="48" viewBox="0 0 48 48" fill="none" xmlns="http://www.w3.org/2000/svg">
<path d="M0 6C0 2.68629 2.68629 0 6 0L42 0C45.3137 0 48 2.68629 48 6L48 42C48 45.3137 45.3137 48 42 48L6 48C2.68629 48 0 45.3137 0 42L0 6Z" fill="#E7F3FA"/>
<mask id="mask0_20_46198" style="mask-type:alpha" maskUnits="userSpaceOnUse" x="12" y="12" width="24" height="24">
<rect x="12" y="12" width="24" height="24" fill="#D9D9D9"/>
</mask>
<g mask="url(#mask0_20_46198)">
<path d="M19.4 28L22.45 24.95L24.45 26.95L28 23.425V25H30V20H25V22H26.575L24.45 24.125L22.45 22.125L18 26.6L19.4 28ZM17 33C16.45 33 15.9792 32.8042 15.5875 32.4125C15.1958 32.0208 15 31.55 15 31V17C15 16.45 15.1958 15.9792 15.5875 15.5875C15.9792 15.1958 16.45 15 17 15H31C31.55 15 32.0208 15.1958 32.4125 15.5875C32.8042 15.9792 33 16.45 33 17V31C33 31.55 32.8042 32.0208 32.4125 32.4125C32.0208 32.8042 31.55 33 31 33H17ZM17 31H31V17H17V31Z" fill="#0070AD"/>
</g>
</svg>
